<svg width="24" height="24" viewBox="0 0 24 24" fill="none" xmlns="http://www.w3.org/2000/svg">
  <path d="M12 1C10.3431 1 9 2.34315 9 4V12C9 13.6569 10.3431 15 12 15C13.6569 15 15 13.6569 15 12V4C15 2.34315 13.6569 1 12 1Z" fill="white"/>
  <path d="M7 11C7 10.4477 6.55228 10 6 10C5.44772 10 5 10.4477 5 11V12C5 15.866 8.13401 19 12 19C15.866 19 19 15.866 19 12V11C19 10.4477 18.5523 10 18 10C17.4477 10 17 10.4477 17 11V12C17 14.7614 14.7614 17 12 17C9.23858 17 7 14.7614 7 12V11Z" fill="white"/>
  <path d="M12 19C11.4477 19 11 19.4477 11 20V22C11 22.5523 11.4477 23 12 23C12.5523 23 13 22.5523 13 22V20C13 19.4477 12.5523 19 12 19Z" fill="white"/>
  <path d="M7 22C6.44772 22 6 22.4477 6 23C6 23.5523 6.44772 24 7 24H17C17.5523 24 18 23.5523 18 23C18 22.4477 17.5523 22 17 22H7Z" fill="white"/>
</svg>